<?xml version="1.0" standalone="no"?>
<!DOCTYPE svg PUBLIC "-//W3C//DTD SVG 20010904//EN"
 "http://www.w3.org/TR/2001/REC-SVG-20010904/DTD/svg10.dtd">
<svg version="1.0" xmlns="http://www.w3.org/2000/svg"
 width="1579.000000pt" height="715.000000pt" viewBox="0 0 1579.000000 715.000000"
 preserveAspectRatio="xMidYMid meet">

<g transform="translate(0.000000,715.000000) scale(0.100000,-0.100000)"
fill="#000000" stroke="none">
<path d="M10 4715 l0 -2425 2415 0 2415 0 0 2425 0 2425 -2415 0 -2415 0 0
-2425z m3884 1403 c3 -24 12 -216 21 -428 8 -212 18 -422 21 -467 l6 -83 -64
0 -65 0 -43 143 c-88 290 -159 428 -279 547 -87 85 -166 129 -284 159 -82 21
-279 38 -321 27 l-26 -6 2 -1423 3 -1422 193 -3 193 -2 -3 -68 -3 -67 -772 -3
-773 -2 0 70 0 70 190 0 190 0 0 1425 0 1424 -36 7 c-20 4 -77 4 -128 0 -337
-25 -520 -160 -658 -486 -33 -78 -95 -266 -116 -350 l-8 -35 -68 -3 -68 -3 7
88 c3 48 15 274 26 502 11 228 22 418 25 422 3 5 641 9 1419 9 l1414 0 5 -42z"/>
<path d="M5480 4715 l0 -2425 2415 0 2415 0 0 2425 0 2425 -2415 0 -2415 0 0
-2425z m2599 1497 c9 -16 501 -1318 981 -2592 l168 -445 143 -5 144 -5 0 -70
0 -70 -740 0 -740 0 0 70 0 70 177 3 176 2 -123 363 -123 362 -480 3 -479 2
-68 -187 c-150 -419 -163 -478 -115 -514 37 -28 120 -40 260 -38 l125 2 0 -69
0 -69 -480 0 -480 0 0 70 0 70 107 6 c91 5 116 10 164 35 41 21 63 39 75 64
10 19 154 395 320 835 624 1657 793 2100 802 2113 6 8 38 12 93 12 71 0 85 -3
93 -18z"/>
<path d="M7611 4614 c-78 -212 -141 -387 -139 -390 3 -2 133 -3 290 -2 l286 3
-141 388 c-78 213 -144 387 -147 387 -3 0 -70 -174 -149 -386z"/>
<path d="M10950 4715 l0 -2425 2420 0 2420 0 0 2425 0 2425 -2420 0 -2420 0 0
-2425z m2365 1440 l0 -70 -178 -3 c-137 -2 -178 -5 -174 -15 95 -241 762
-1884 766 -1890 9 -10 631 1790 631 1826 0 24 -7 31 -47 50 -41 18 -70 22
-210 25 l-163 4 0 74 0 74 488 -2 487 -3 0 -70 0 -70 -131 -5 c-100 -4 -136
-9 -156 -22 -36 -24 -88 -114 -141 -243 -33 -81 -743 -2107 -959 -2738 l-20
-58 -71 3 -71 3 -272 675 c-150 371 -427 1059 -616 1527 l-343 853 -132 0
-133 0 0 75 0 75 723 -2 722 -3 0 -70z"/>
<path d="M522 1753 c-85 -222 -505 -1349 -510 -1366 -4 -16 8 -17 193 -15
l198 3 47 130 46 130 260 0 259 0 45 -132 45 -133 203 0 c112 0 201 4 198 8
-4 7 -434 1160 -517 1389 l-34 93 -196 0 -196 0 -41 -107z m321 -574 c43 -135
77 -248 77 -252 0 -4 -74 -7 -165 -7 -91 0 -165 4 -165 8 0 5 30 100 66 213
36 112 73 226 81 253 8 27 18 45 22 40 4 -5 42 -120 84 -255z"/>
<path d="M1770 1725 l0 -135 175 0 175 0 0 135 0 135 -175 0 -175 0 0 -135z"/>
<path d="M7540 1615 l0 -165 -90 0 -90 0 0 -115 0 -115 89 0 89 0 5 -307 c3
-233 8 -321 20 -359 29 -99 64 -138 153 -169 59 -20 212 -30 317 -20 l77 7 0
129 0 130 -48 -7 c-26 -3 -66 -1 -89 5 -73 20 -73 21 -73 323 l0 268 110 0
110 0 0 115 0 115 -110 0 -110 0 0 165 0 165 -180 0 -180 0 0 -165z"/>
<path d="M4085 1466 c-65 -20 -98 -42 -148 -93 l-47 -48 0 63 0 62 -170 0
-170 0 0 -720 0 -720 180 0 180 0 0 238 0 239 46 -45 c62 -59 136 -92 223 -99
234 -20 412 118 476 367 25 94 22 281 -4 383 -40 154 -139 291 -247 342 -93
44 -234 58 -319 31z m115 -275 c99 -52 147 -233 105 -396 -36 -137 -119 -199
-242 -180 -67 10 -125 68 -149 150 -24 82 -24 223 0 294 21 60 88 136 127 144
59 11 126 6 159 -12z"/>
<path d="M5376 1465 c-132 -34 -250 -120 -328 -239 -105 -163 -116 -410 -26
-594 38 -78 127 -171 209 -219 177 -105 455 -95 626 23 106 73 185 185 219
311 20 76 20 240 -1 318 -47 180 -180 326 -349 385 -81 29 -265 36 -350 15z
m227 -268 c45 -19 103 -88 119 -139 17 -56 17 -241 0 -296 -17 -55 -82 -127
-129 -143 -87 -28 -184 7 -232 84 -52 85 -64 249 -26 358 20 56 69 117 109
135 40 17 118 18 159 1z"/>
<path d="M8695 1464 c-95 -19 -205 -74 -250 -126 -85 -100 -86 -275 -1 -374
51 -59 137 -96 332 -142 195 -47 221 -55 252 -84 24 -24 30 -75 11 -110 -30
-55 -175 -76 -257 -37 -46 23 -82 69 -82 107 0 22 0 22 -171 22 l-171 0 6 -47
c4 -27 20 -76 37 -110 70 -145 235 -223 471 -223 256 0 426 77 499 226 42 86
47 193 11 265 -56 114 -143 163 -372 209 -226 45 -302 88 -272 156 16 34 68
54 142 54 97 0 160 -38 160 -97 l0 -23 166 0 166 0 -6 38 c-30 168 -124 257
-313 297 -85 18 -265 18 -358 -1z"/>
<path d="M3043 1456 c-82 -26 -147 -80 -182 -151 l-20 -40 -1 93 0 92 -175 0
-175 0 0 -540 0 -540 180 0 180 0 0 300 c0 329 1 336 60 404 53 60 102 80 195
81 44 0 95 -3 113 -7 l32 -7 0 158 c0 136 -2 160 -16 165 -27 10 -147 5 -191
-8z"/>
<path d="M6952 1450 c-70 -25 -127 -72 -162 -134 l-30 -51 0 93 0 92 -170 0
-170 0 0 -540 0 -540 175 0 175 0 0 298 c0 326 2 336 65 410 46 55 98 76 190
77 44 0 95 -3 113 -7 l32 -7 0 158 c0 136 -2 160 -16 165 -33 13 -150 5 -202
-14z"/>
<path d="M1770 910 l0 -540 175 0 175 0 0 540 0 540 -175 0 -175 0 0 -540z"/>
</g>
</svg>
